<svg width="236" height="103" viewBox="0 0 236 103" fill="none" xmlns="http://www.w3.org/2000/svg">
<g filter="url(#filter0_b)">
<path d="M117.928 94.272C118.216 94.272 118.36 94.56 118.36 95.136C118.36 95.712 118.216 96 117.928 96C114.952 96 112.6 95.952 110.872 95.856L100.936 95.712L91.72 95.856C90.184 95.952 88.024 96 85.24 96C85.048 96 84.952 95.712 84.952 95.136C84.952 94.56 85.048 94.272 85.24 94.272C88.504 94.272 90.904 94.032 92.44 93.552C94.072 92.976 95.128 92.016 95.608 90.672C96.184 89.328 96.376 87.216 96.184 84.336L93.592 18.816L60.76 94.992C60.568 95.376 60.184 95.568 59.608 95.568C59.128 95.568 58.696 95.376 58.312 94.992L22.888 19.68L21.592 80.304C21.496 85.392 22.36 88.992 24.184 91.104C26.008 93.216 29.224 94.272 33.832 94.272C34.024 94.272 34.12 94.56 34.12 95.136C34.12 95.712 34.024 96 33.832 96C31.144 96 29.08 95.952 27.64 95.856L19.864 95.712L12.376 95.856C11.032 95.952 9.112 96 6.616 96C6.424 96 6.328 95.712 6.328 95.136C6.328 94.56 6.424 94.272 6.616 94.272C10.648 94.272 13.528 93.216 15.256 91.104C17.08 88.896 18.04 85.296 18.136 80.304L19.432 13.488C16.552 9.648 12.616 7.72799 7.624 7.72799C7.432 7.72799 7.336 7.44 7.336 6.864C7.336 6.288 7.432 6 7.624 6L12.952 6.144C13.912 6.24 15.256 6.288 16.984 6.288C18.712 6.288 20.152 6.24 21.304 6.144C22.552 6.048 23.512 6 24.184 6C25.432 6 26.44 6.48 27.208 7.44C28.072 8.304 29.272 10.32 30.808 13.488L62.92 81.168L94.312 9.6C95.368 7.2 96.808 6 98.632 6C99.112 6 99.784 6.048 100.648 6.144C101.608 6.24 102.856 6.288 104.392 6.288L111.16 6.144C112.216 6.048 113.8 6 115.912 6C116.2 6 116.344 6.288 116.344 6.864C116.344 7.44 116.2 7.72799 115.912 7.72799C111.112 7.72799 107.656 8.44799 105.544 9.88799C103.528 11.232 102.568 13.824 102.664 17.664L105.544 84.336C105.64 87.312 105.976 89.472 106.552 90.816C107.224 92.16 108.376 93.072 110.008 93.552C111.64 94.032 114.28 94.272 117.928 94.272ZM228.799 94.272C229.087 94.272 229.231 94.56 229.231 95.136C229.231 95.712 229.087 96 228.799 96H212.671C211.903 96 210.511 96 208.495 96C206.575 96.096 203.839 93.696 200.287 88.8C196.735 83.808 193.327 79.248 190.063 75.12L168.031 47.328L163.279 51.936V84.336C163.279 87.216 163.567 89.376 164.143 90.816C164.719 92.16 165.823 93.072 167.455 93.552C169.183 94.032 171.871 94.272 175.519 94.272C175.807 94.272 175.951 94.56 175.951 95.136C175.951 95.712 175.807 96 175.519 96C172.639 96 170.335 95.952 168.607 95.856L158.527 95.712L148.735 95.856C147.007 95.952 144.607 96 141.535 96C141.343 96 141.247 95.712 141.247 95.136C141.247 94.56 141.343 94.272 141.535 94.272C145.183 94.272 147.823 94.032 149.455 93.552C151.183 93.072 152.335 92.16 152.911 90.816C153.583 89.376 153.919 87.216 153.919 84.336V17.664C153.919 14.784 153.631 12.672 153.055 11.328C152.479 9.98399 151.327 9.07199 149.599 8.59199C147.967 8.01599 145.327 7.72799 141.679 7.72799C141.487 7.72799 141.391 7.44 141.391 6.864C141.391 6.288 141.487 6 141.679 6L148.879 6.144C152.911 6.336 156.127 6.43199 158.527 6.43199C161.311 6.43199 164.719 6.336 168.751 6.144L175.519 6C175.807 6 175.951 6.288 175.951 6.864C175.951 7.44 175.807 7.72799 175.519 7.72799C171.967 7.72799 169.327 8.01599 167.599 8.59199C165.967 9.168 164.815 10.176 164.143 11.616C163.567 12.96 163.279 15.072 163.279 17.952V48.336L194.095 17.664C197.263 14.496 198.847 12.144 198.847 10.608C198.847 8.68799 196.015 7.72799 190.351 7.72799C190.159 7.72799 190.063 7.44 190.063 6.864C190.063 6.288 190.159 6 190.351 6L196.543 6.144C200.383 6.336 203.887 6.43199 207.055 6.43199C210.223 6.43199 213.535 6.336 216.991 6.144L222.319 6C222.607 6 222.751 6.288 222.751 6.864C222.751 7.44 222.607 7.72799 222.319 7.72799C218.383 7.72799 214.207 8.592 209.791 10.32C205.375 12.048 201.247 14.784 197.407 18.528L174.655 40.848L195.391 67.344C202.399 76.464 207.727 82.896 211.375 86.64C215.119 90.384 217.999 92.592 220.015 93.264C222.031 93.936 224.959 94.272 228.799 94.272Z" fill="#FFFCFC"/>
<path d="M110.872 95.856L111.205 89.8652L111.082 89.8584L110.959 89.8566L110.872 95.856ZM100.936 95.712L101.023 89.7126L100.933 89.7113L100.842 89.7127L100.936 95.712ZM91.72 95.856L91.6263 89.8567L91.4859 89.8589L91.3457 89.8677L91.72 95.856ZM92.44 93.552L94.2297 99.2789L94.3339 99.2463L94.4369 99.2099L92.44 93.552ZM95.608 90.672L90.0931 88.3085L90.02 88.4791L89.9575 88.654L95.608 90.672ZM96.184 84.336L90.1887 84.5732L90.1919 84.6542L90.1973 84.7351L96.184 84.336ZM93.592 18.816L99.5873 18.5788L88.082 16.4412L93.592 18.816ZM60.76 94.992L66.1266 97.6753L66.2027 97.5231L66.27 97.3668L60.76 94.992ZM58.312 94.992L52.8826 97.5458L53.3285 98.4938L54.0694 99.2346L58.312 94.992ZM22.888 19.68L28.3174 17.1262L16.8894 19.5518L22.888 19.68ZM21.592 80.304L15.5934 80.1758L15.5932 80.1833L15.5931 80.1908L21.592 80.304ZM24.184 91.104L28.7249 87.1823L28.7249 87.1823L24.184 91.104ZM27.64 95.856L28.0391 89.8693L27.8953 89.8597L27.7511 89.857L27.64 95.856ZM19.864 95.712L19.9751 89.713L19.8619 89.7109L19.7486 89.7131L19.864 95.712ZM12.376 95.856L12.2606 89.8571L12.1044 89.8601L11.9485 89.8712L12.376 95.856ZM15.256 91.104L10.6302 87.2827L10.6212 87.2936L10.6123 87.3046L15.256 91.104ZM18.136 80.304L12.1371 80.1876L12.1371 80.1886L18.136 80.304ZM19.432 13.488L25.4309 13.6044L25.4709 11.5399L24.232 9.888L19.432 13.488ZM7.624 6L7.7861 0.00219012L7.70507 0H7.624V6ZM12.952 6.144L13.549 0.173774L13.3321 0.152079L13.1141 0.146188L12.952 6.144ZM21.304 6.144L20.8438 0.161671L20.8248 0.163136L20.8057 0.164723L21.304 6.144ZM27.208 7.44L22.5228 11.1882L22.7304 11.4477L22.9654 11.6826L27.208 7.44ZM30.808 13.488L36.2288 10.916L36.2179 10.8931L36.2069 10.8704L30.808 13.488ZM62.92 81.168L57.4992 83.74L63.1342 95.6165L68.4147 83.5781L62.92 81.168ZM94.312 9.6L88.8201 7.18355L88.8173 7.18987L94.312 9.6ZM100.648 6.144L99.9854 12.1073L100.018 12.1109L100.051 12.1142L100.648 6.144ZM104.392 6.288V12.288H104.456L104.52 12.2866L104.392 6.288ZM111.16 6.144L111.288 12.1426L111.496 12.1382L111.703 12.1194L111.16 6.144ZM105.544 9.88799L108.872 14.8803L108.898 14.863L108.924 14.8454L105.544 9.88799ZM102.664 17.664L96.6659 17.8139L96.6672 17.8685L96.6696 17.9229L102.664 17.664ZM105.544 84.336L111.541 84.1425L111.54 84.1098L111.538 84.0771L105.544 84.336ZM106.552 90.816L101.037 93.1795L101.107 93.3416L101.185 93.4993L106.552 90.816ZM117.928 100.272C116.95 100.272 115.827 100.01 114.789 99.3183C113.788 98.6514 113.205 97.8111 112.885 97.1713C112.331 96.0615 112.36 95.1544 112.36 95.136H124.36C124.36 94.5416 124.317 93.2025 123.619 91.8047C123.227 91.0209 122.554 90.0726 121.445 89.3337C120.299 88.5697 119.05 88.272 117.928 88.272V100.272ZM112.36 95.136C112.36 95.1176 112.331 94.2105 112.885 93.1007C113.205 92.4609 113.788 91.6206 114.789 90.9537C115.827 90.2617 116.95 90 117.928 90V102C119.05 102 120.299 101.702 121.445 100.938C122.554 100.199 123.227 99.2511 123.619 98.4673C124.317 97.0695 124.36 95.7304 124.36 95.136H112.36ZM117.928 90C114.996 90 112.771 89.9523 111.205 89.8652L110.539 101.847C112.429 101.952 114.908 102 117.928 102V90ZM110.959 89.8566L101.023 89.7126L100.849 101.711L110.785 101.855L110.959 89.8566ZM100.842 89.7127L91.6263 89.8567L91.8137 101.855L101.03 101.711L100.842 89.7127ZM91.3457 89.8677C89.9958 89.9521 87.9815 90 85.24 90V102C88.0665 102 90.3722 101.952 92.0943 101.844L91.3457 89.8677ZM85.24 90C86.8873 90 88.3431 90.6899 89.3566 91.7033C90.2227 92.5694 90.5782 93.4729 90.7161 93.8866C90.8693 94.3463 90.9168 94.7031 90.9333 94.8514C90.9521 95.0208 90.952 95.125 90.952 95.136H78.952C78.952 95.5991 78.9712 96.5994 79.3319 97.6814C79.6412 98.6093 81.1585 102 85.24 102V90ZM90.952 95.136C90.952 95.147 90.9521 95.2512 90.9333 95.4206C90.9168 95.5689 90.8693 95.9257 90.7161 96.3854C90.5782 96.7991 90.2227 97.7026 89.3566 98.5687C88.3431 99.5821 86.8873 100.272 85.24 100.272V88.272C81.1585 88.272 79.6412 91.6627 79.3319 92.5906C78.9712 93.6726 78.952 94.6729 78.952 95.136H90.952ZM85.24 100.272C88.6211 100.272 91.7824 100.044 94.2297 99.2789L90.6504 87.8251C90.0256 88.0204 88.3869 88.272 85.24 88.272V100.272ZM94.4369 99.2099C97.3725 98.1738 100.041 96.0985 101.258 92.69L89.9575 88.654C89.9974 88.5423 90.0593 88.4124 90.1477 88.2798C90.2361 88.1472 90.3322 88.0402 90.42 87.9604C90.5953 87.801 90.6615 87.817 90.4431 87.8941L94.4369 99.2099ZM101.123 93.0355C102.285 90.3247 102.376 87.0131 102.171 83.9369L90.1973 84.7351C90.2793 85.965 90.2681 86.883 90.2086 87.5368C90.1464 88.2219 90.0487 88.4121 90.0931 88.3085L101.123 93.0355ZM102.179 84.0988L99.5873 18.5788L87.5967 19.0532L90.1887 84.5732L102.179 84.0988ZM88.082 16.4412L55.25 92.6172L66.27 97.3668L99.102 21.1908L88.082 16.4412ZM55.3934 92.3087C55.878 91.3395 56.6756 90.542 57.6447 90.0574C58.5205 89.6196 59.2681 89.568 59.608 89.568V101.568C61.5506 101.568 64.568 100.792 66.1266 97.6753L55.3934 92.3087ZM59.608 89.568C60.1942 89.568 60.7977 89.6908 61.3608 89.9411C61.91 90.1852 62.3024 90.4971 62.5547 90.7494L54.0694 99.2346C55.4175 100.583 57.3225 101.568 59.608 101.568V89.568ZM63.7414 92.4382L28.3174 17.1262L17.4586 22.2338L52.8826 97.5458L63.7414 92.4382ZM16.8894 19.5518L15.5934 80.1758L27.5906 80.4322L28.8866 19.8082L16.8894 19.5518ZM15.5931 80.1908C15.4897 85.6689 16.3214 91.1796 19.6431 95.0257L28.7249 87.1823C28.3986 86.8044 27.5023 85.1151 27.5909 80.4172L15.5931 80.1908ZM19.6431 95.0257C23.1706 99.1102 28.5835 100.272 33.832 100.272V88.272C29.8645 88.272 28.8454 87.3218 28.7249 87.1823L19.6431 95.0257ZM33.832 100.272C32.1847 100.272 30.7288 99.5821 29.7153 98.5686C28.8493 97.7025 28.4938 96.7991 28.3559 96.3854C28.2027 95.9257 28.1552 95.5689 28.1387 95.4206C28.1199 95.2512 28.12 95.147 28.12 95.136H40.12C40.12 94.6729 40.1008 93.6727 39.7401 92.5906C39.4308 91.6628 37.9136 88.272 33.832 88.272V100.272ZM28.12 95.136C28.12 95.125 28.1199 95.0208 28.1387 94.8514C28.1552 94.7031 28.2027 94.3463 28.3559 93.8866C28.4938 93.4729 28.8493 92.5695 29.7153 91.7034C30.7288 90.6899 32.1847 90 33.832 90V102C37.9136 102 39.4308 98.6092 39.7401 97.6814C40.1008 96.5993 40.12 95.5991 40.12 95.136H28.12ZM33.832 90C31.1847 90 29.2782 89.9519 28.0391 89.8693L27.2409 101.843C28.8818 101.952 31.1033 102 33.832 102V90ZM27.7511 89.857L19.9751 89.713L19.7529 101.711L27.5289 101.855L27.7511 89.857ZM19.7486 89.7131L12.2606 89.8571L12.4914 101.855L19.9794 101.711L19.7486 89.7131ZM11.9485 89.8712C10.8192 89.9519 9.06744 90 6.616 90V102C9.15656 102 11.2448 101.952 12.8035 101.841L11.9485 89.8712ZM6.616 90C8.26332 90 9.71917 90.6899 10.7326 91.7034C11.5987 92.5695 11.9542 93.4729 12.0921 93.8866C12.2453 94.3463 12.2928 94.7031 12.3093 94.8514C12.3281 95.0208 12.328 95.125 12.328 95.136H0.328C0.328 95.5991 0.347227 96.5993 0.7079 97.6814C1.0172 98.6093 2.53446 102 6.616 102V90ZM12.328 95.136C12.328 95.147 12.3281 95.2512 12.3093 95.4206C12.2928 95.5689 12.2453 95.9257 12.0921 96.3854C11.9542 96.7991 11.5987 97.7025 10.7326 98.5686C9.71917 99.5821 8.26332 100.272 6.616 100.272V88.272C2.53446 88.272 1.0172 91.6627 0.7079 92.5906C0.347227 93.6727 0.328 94.6729 0.328 95.136H12.328ZM6.616 100.272C11.5649 100.272 16.5713 98.9715 19.8997 94.9034L10.6123 87.3046C10.4847 87.4605 9.73112 88.272 6.616 88.272V100.272ZM19.8818 94.9253C23.008 91.1409 24.0302 85.8614 24.1349 80.4194L12.1371 80.1886C12.0498 84.7306 11.152 86.6511 10.6302 87.2827L19.8818 94.9253ZM24.1349 80.4204L25.4309 13.6044L13.4331 13.3716L12.1371 80.1876L24.1349 80.4204ZM24.232 9.888C20.1668 4.4677 14.416 1.72799 7.624 1.72799V13.728C10.816 13.728 12.9372 14.8283 14.632 17.088L24.232 9.888ZM7.624 1.72799C9.27132 1.72799 10.7272 2.41788 11.7406 3.43135C12.6067 4.29745 12.9622 5.20091 13.1001 5.61462C13.2533 6.07431 13.3008 6.43113 13.3173 6.57941C13.3361 6.74879 13.336 6.85302 13.336 6.864H1.336C1.336 7.3271 1.35523 8.32735 1.7159 9.40937C2.0252 10.3373 3.54247 13.728 7.624 13.728V1.72799ZM13.336 6.864C13.336 6.87497 13.3361 6.97921 13.3173 7.14859C13.3008 7.29686 13.2533 7.65368 13.1001 8.11337C12.9622 8.52708 12.6067 9.43055 11.7406 10.2966C10.7272 11.3101 9.27132 12 7.624 12V0C3.54247 0 2.0252 3.39073 1.7159 4.31863C1.35523 5.40065 1.336 6.4009 1.336 6.864H13.336ZM7.4619 11.9978L12.7899 12.1418L13.1141 0.146188L7.7861 0.00219012L7.4619 11.9978ZM12.355 12.1142C13.6101 12.2397 15.1859 12.288 16.984 12.288V0.287996C15.3261 0.287996 14.2139 0.240266 13.549 0.173774L12.355 12.1142ZM16.984 12.288C18.8057 12.288 20.4252 12.238 21.8023 12.1233L20.8057 0.164723C19.8788 0.24197 18.6183 0.287996 16.984 0.287996V12.288ZM21.7642 12.1263C22.9654 12.0339 23.7442 12 24.184 12V0C23.2798 0 22.1386 0.0620706 20.8438 0.161671L21.7642 12.1263ZM24.184 12C24.0214 12 23.6887 11.964 23.2964 11.7772C22.9014 11.5891 22.6474 11.3439 22.5228 11.1882L31.8932 3.69183C29.9666 1.28362 27.2226 0 24.184 0V12ZM22.9654 11.6826C22.8566 11.5739 23.0671 11.7732 23.6002 12.6689C24.0813 13.477 24.6828 14.6076 25.4091 16.1056L36.2069 10.8704C35.3972 9.20039 34.6307 7.73898 33.9118 6.53109C33.2449 5.4108 32.4234 4.17008 31.4506 3.19736L22.9654 11.6826ZM25.3872 16.06L57.4992 83.74L68.3408 78.596L36.2288 10.916L25.3872 16.06ZM68.4147 83.5781L99.8067 12.0101L88.8173 7.18987L57.4253 78.7579L68.4147 83.5781ZM99.8039 12.0164C100.098 11.3471 100.243 11.3274 100.025 11.5093C99.8989 11.6145 99.6913 11.7517 99.4064 11.8565C99.1193 11.962 98.8474 12 98.632 12V0C93.4169 0 90.3468 3.71393 88.8201 7.18356L99.8039 12.0164ZM98.632 12C98.7811 12 99.1958 12.0196 99.9854 12.1073L101.311 0.180695C100.372 0.0764269 99.4429 0 98.632 0V12ZM100.051 12.1142C101.29 12.2381 102.758 12.288 104.392 12.288V0.287996C102.954 0.287996 101.926 0.241892 101.245 0.173774L100.051 12.1142ZM104.52 12.2866L111.288 12.1426L111.032 0.145356L104.264 0.289354L104.52 12.2866ZM111.703 12.1194C112.479 12.0489 113.841 12 115.912 12V0C113.759 0 111.953 0.0471269 110.617 0.168638L111.703 12.1194ZM115.912 12C114.934 12 113.811 11.7383 112.773 11.0463C111.772 10.3794 111.189 9.53909 110.869 8.8993C110.315 7.78952 110.344 6.88245 110.344 6.864H122.344C122.344 6.26955 122.301 4.93047 121.603 3.5327C121.211 2.74891 120.538 1.80062 119.429 1.06168C118.283 0.297711 117.034 0 115.912 0V12ZM110.344 6.864C110.344 6.84555 110.315 5.93847 110.869 4.82869C111.189 4.18891 111.772 3.34861 112.773 2.68168C113.811 1.98971 114.934 1.72799 115.912 1.72799V13.728C117.034 13.728 118.283 13.4303 119.429 12.6663C120.538 11.9274 121.211 10.9791 121.603 10.1953C122.301 8.79752 122.344 7.45845 122.344 6.864H110.344ZM115.912 1.72799C110.81 1.72799 105.822 2.43676 102.164 4.93063L108.924 14.8454C109.49 14.4592 111.414 13.728 115.912 13.728V1.72799ZM102.216 4.89569C97.6509 7.93895 96.5499 13.1741 96.6659 17.8139L108.662 17.514C108.626 16.0796 108.804 15.2858 108.938 14.9239C109.043 14.6416 109.063 14.7533 108.872 14.8803L102.216 4.89569ZM96.6696 17.9229L99.5496 84.5949L111.538 84.0771L108.658 17.4051L96.6696 17.9229ZM99.5471 84.5295C99.6475 87.641 99.9959 90.75 101.037 93.1795L112.067 88.4525C112.067 88.4537 112.057 88.4299 112.039 88.3764C112.022 88.3231 111.998 88.2466 111.972 88.1437C111.917 87.9347 111.856 87.6466 111.797 87.2658C111.677 86.4956 111.584 85.4672 111.541 84.1425L99.5471 84.5295ZM101.185 93.4993C102.704 96.5369 105.318 98.4266 108.315 99.3082L111.701 87.7958C111.508 87.7391 111.529 87.7129 111.644 87.8037C111.699 87.8471 111.758 87.9038 111.812 87.9707C111.866 88.0372 111.9 88.0954 111.919 88.1327L101.185 93.4993ZM108.315 99.3082C110.829 100.048 114.207 100.272 117.928 100.272V88.272C114.353 88.272 112.451 88.0164 111.701 87.7958L108.315 99.3082ZM208.495 96V90H208.345L208.195 90.0075L208.495 96ZM200.287 88.8L195.398 92.2785L195.414 92.301L195.43 92.3234L200.287 88.8ZM190.063 75.12L194.769 71.3986L194.765 71.3927L190.063 75.12ZM168.031 47.328L172.733 43.6007L168.614 38.405L163.854 43.0206L168.031 47.328ZM163.279 51.936L159.102 47.6286L157.279 49.3965V51.936H163.279ZM164.143 90.816L158.572 93.0443L158.599 93.1123L158.628 93.1795L164.143 90.816ZM167.455 93.552L165.762 99.3082L165.805 99.321L165.849 99.3331L167.455 93.552ZM168.607 95.856L168.94 89.8652L168.816 89.8584L168.693 89.8566L168.607 95.856ZM158.527 95.712L158.613 89.7126L158.526 89.7114L158.439 89.7126L158.527 95.712ZM148.735 95.856L148.647 89.8566L148.524 89.8584L148.402 89.8652L148.735 95.856ZM149.455 93.552L147.849 87.7709L147.805 87.783L147.762 87.7958L149.455 93.552ZM152.911 90.816L147.474 88.2787L147.434 88.365L147.396 88.4525L152.911 90.816ZM153.055 11.328L147.54 13.6915L147.54 13.6915L153.055 11.328ZM149.599 8.59199L147.602 14.2499L147.796 14.3182L147.993 14.3731L149.599 8.59199ZM141.679 6L141.799 0.00119961L141.739 0H141.679V6ZM148.879 6.144L149.164 0.150789L149.082 0.146853L148.999 0.145198L148.879 6.144ZM168.751 6.144L168.623 0.145356L168.544 0.147035L168.466 0.150789L168.751 6.144ZM175.519 6V0H175.455L175.391 0.00135758L175.519 6ZM167.599 8.59199L165.702 2.89989L165.652 2.91654L165.602 2.93406L167.599 8.59199ZM164.143 11.616L158.706 9.07868L158.666 9.16496L158.628 9.25248L164.143 11.616ZM163.279 48.336H157.279V62.7734L167.512 52.5886L163.279 48.336ZM194.095 17.664L198.328 21.9166L198.338 21.9066L194.095 17.664ZM190.351 6L190.49 0.0016218L190.421 0H190.351V6ZM196.543 6.144L196.843 0.151484L196.763 0.147483L196.682 0.14562L196.543 6.144ZM216.991 6.144L216.829 0.146188L216.743 0.148497L216.658 0.153236L216.991 6.144ZM222.319 6V0H222.238L222.157 0.00219012L222.319 6ZM209.791 10.32L207.605 4.73254L207.605 4.73254L209.791 10.32ZM197.407 18.528L193.218 14.232L193.212 14.2384L193.205 14.2449L197.407 18.528ZM174.655 40.848L170.453 36.5649L166.624 40.3215L169.93 44.5458L174.655 40.848ZM195.391 67.344L200.149 63.6882L200.132 63.6671L200.116 63.6461L195.391 67.344ZM211.375 86.64L207.078 90.8272L207.105 90.8551L207.132 90.8826L211.375 86.64ZM220.015 93.264L221.912 87.5719L221.912 87.5719L220.015 93.264ZM228.799 100.272C227.821 100.272 226.698 100.01 225.66 99.3183C224.659 98.6514 224.076 97.8111 223.756 97.1713C223.202 96.0615 223.231 95.1544 223.231 95.136H235.231C235.231 94.5416 235.188 93.2025 234.49 91.8047C234.098 91.0209 233.425 90.0726 232.316 89.3337C231.17 88.5697 229.921 88.272 228.799 88.272V100.272ZM223.231 95.136C223.231 95.1176 223.202 94.2105 223.756 93.1007C224.076 92.4609 224.659 91.6206 225.66 90.9537C226.698 90.2617 227.821 90 228.799 90V102C229.921 102 231.17 101.702 232.316 100.938C233.425 100.199 234.098 99.2511 234.49 98.4673C235.188 97.0695 235.231 95.7304 235.231 95.136H223.231ZM228.799 90H212.671V102H228.799V90ZM212.671 90C212.67 90 212.668 90 212.666 90C212.665 90 212.663 90 212.662 90C212.66 90 212.659 90 212.657 90C212.656 90 212.654 90 212.653 90C212.651 90 212.65 90 212.648 90C212.647 90 212.645 90 212.644 90C212.642 90 212.641 90 212.639 90C212.638 90 212.636 90 212.635 90C212.633 90 212.631 90 212.63 90C212.628 90 212.627 90 212.625 90C212.624 90 212.622 90 212.621 90C212.619 90 212.618 90 212.616 90C212.614 90 212.613 90 212.611 90C212.61 90 212.608 90 212.607 90C212.605 90 212.603 90 212.602 90C212.6 90 212.599 90 212.597 90C212.596 90 212.594 90 212.592 90C212.591 90 212.589 90 212.588 90C212.586 90 212.585 90 212.583 90C212.581 90 212.58 90 212.578 90C212.577 90 212.575 90 212.573 90C212.572 90 212.57 90 212.569 90C212.567 90 212.565 90 212.564 90C212.562 90 212.561 90 212.559 90C212.557 90 212.556 90 212.554 90C212.552 90 212.551 90 212.549 90C212.548 90 212.546 90 212.544 90C212.543 90 212.541 90 212.539 90C212.538 90 212.536 90 212.534 90C212.533 90 212.531 90 212.53 90C212.528 90 212.526 90 212.525 90C212.523 90 212.521 90 212.52 90C212.518 90 212.516 90 212.515 90C212.513 90 212.511 90 212.51 90C212.508 90 212.506 90 212.505 90C212.503 90 212.501 90 212.5 90C212.498 90 212.496 90 212.495 90C212.493 90 212.491 90 212.49 90C212.488 90 212.486 90 212.485 90C212.483 90 212.481 90 212.48 90C212.478 90 212.476 90 212.474 90C212.473 90 212.471 90 212.469 90C212.468 90 212.466 90 212.464 90C212.463 90 212.461 90 212.459 90C212.457 90 212.456 90 212.454 90C212.452 90 212.451 90 212.449 90C212.447 90 212.445 90 212.444 90C212.442 90 212.44 90 212.439 90C212.437 90 212.435 90 212.433 90C212.432 90 212.43 90 212.428 90C212.426 90 212.425 90 212.423 90C212.421 90 212.419 90 212.418 90C212.416 90 212.414 90 212.412 90C212.411 90 212.409 90 212.407 90C212.405 90 212.404 90 212.402 90C212.4 90 212.398 90 212.397 90C212.395 90 212.393 90 212.391 90C212.39 90 212.388 90 212.386 90C212.384 90 212.382 90 212.381 90C212.379 90 212.377 90 212.375 90C212.374 90 212.372 90 212.37 90C212.368 90 212.366 90 212.365 90C212.363 90 212.361 90 212.359 90C212.357 90 212.356 90 212.354 90C212.352 90 212.35 90 212.348 90C212.347 90 212.345 90 212.343 90C212.341 90 212.339 90 212.337 90C212.336 90 212.334 90 212.332 90C212.33 90 212.328 90 212.327 90C212.325 90 212.323 90 212.321 90C212.319 90 212.317 90 212.316 90C212.314 90 212.312 90 212.31 90C212.308 90 212.306 90 212.304 90C212.303 90 212.301 90 212.299 90C212.297 90 212.295 90 212.293 90C212.291 90 212.29 90 212.288 90C212.286 90 212.284 90 212.282 90C212.28 90 212.278 90 212.277 90C212.275 90 212.273 90 212.271 90C212.269 90 212.267 90 212.265 90C212.263 90 212.262 90 212.26 90C212.258 90 212.256 90 212.254 90C212.252 90 212.25 90 212.248 90C212.246 90 212.245 90 212.243 90C212.241 90 212.239 90 212.237 90C212.235 90 212.233 90 212.231 90C212.229 90 212.227 90 212.225 90C212.224 90 212.222 90 212.22 90C212.218 90 212.216 90 212.214 90C212.212 90 212.21 90 212.208 90C212.206 90 212.204 90 212.202 90C212.2 90 212.198 90 212.197 90C212.195 90 212.193 90 212.191 90C212.189 90 212.187 90 212.185 90C212.183 90 212.181 90 212.179 90C212.177 90 212.175 90 212.173 90C212.171 90 212.169 90 212.167 90C212.165 90 212.163 90 212.161 90C212.159 90 212.157 90 212.156 90C212.154 90 212.152 90 212.15 90C212.148 90 212.146 90 212.144 90C212.142 90 212.14 90 212.138 90C212.136 90 212.134 90 212.132 90C212.13 90 212.128 90 212.126 90C212.124 90 212.122 90 212.12 90C212.118 90 212.116 90 212.114 90C212.112 90 212.11 90 212.108 90C212.106 90 212.104 90 212.102 90C212.1 90 212.098 90 212.096 90C212.094 90 212.092 90 212.09 90C212.088 90 212.086 90 212.084 90C212.081 90 212.079 90 212.077 90C212.075 90 212.073 90 212.071 90C212.069 90 212.067 90 212.065 90C212.063 90 212.061 90 212.059 90C212.057 90 212.055 90 212.053 90C212.051 90 212.049 90 212.047 90C212.045 90 212.043 90 212.041 90C212.039 90 212.036 90 212.034 90C212.032 90 212.03 90 212.028 90C212.026 90 212.024 90 212.022 90C212.02 90 212.018 90 212.016 90C212.014 90 212.012 90 212.009 90C212.007 90 212.005 90 212.003 90C212.001 90 211.999 90 211.997 90C211.995 90 211.993 90 211.991 90C211.989 90 211.986 90 211.984 90C211.982 90 211.98 90 211.978 90C211.976 90 211.974 90 211.972 90C211.97 90 211.967 90 211.965 90C211.963 90 211.961 90 211.959 90C211.957 90 211.955 90 211.953 90C211.95 90 211.948 90 211.946 90C211.944 90 211.942 90 211.94 90C211.938 90 211.935 90 211.933 90C211.931 90 211.929 90 211.927 90C211.925 90 211.923 90 211.92 90C211.918 90 211.916 90 211.914 90C211.912 90 211.91 90 211.908 90C211.905 90 211.903 90 211.901 90C211.899 90 211.897 90 211.895 90C211.892 90 211.89 90 211.888 90C211.886 90 211.884 90 211.881 90C211.879 90 211.877 90 211.875 90C211.873 90 211.871 90 211.868 90C211.866 90 211.864 90 211.862 90C211.86 90 211.857 90 211.855 90C211.853 90 211.851 90 211.849 90C211.846 90 211.844 90 211.842 90C211.84 90 211.838 90 211.835 90C211.833 90 211.831 90 211.829 90C211.826 90 211.824 90 211.822 90C211.82 90 211.818 90 211.815 90C211.813 90 211.811 90 211.809 90C211.806 90 211.804 90 211.802 90C211.8 90 211.797 90 211.795 90C211.793 90 211.791 90 211.788 90C211.786 90 211.784 90 211.782 90C211.779 90 211.777 90 211.775 90C211.773 90 211.77 90 211.768 90C211.766 90 211.764 90 211.761 90C211.759 90 211.757 90 211.755 90C211.752 90 211.75 90 211.748 90C211.745 90 211.743 90 211.741 90C211.739 90 211.736 90 211.734 90C211.732 90 211.73 90 211.727 90C211.725 90 211.723 90 211.72 90C211.718 90 211.716 90 211.713 90C211.711 90 211.709 90 211.707 90C211.704 90 211.702 90 211.7 90C211.697 90 211.695 90 211.693 90C211.69 90 211.688 90 211.686 90C211.683 90 211.681 90 211.679 90C211.676 90 211.674 90 211.672 90C211.669 90 211.667 90 211.665 90C211.662 90 211.66 90 211.658 90C211.655 90 211.653 90 211.651 90C211.648 90 211.646 90 211.644 90C211.641 90 211.639 90 211.637 90C211.634 90 211.632 90 211.63 90C211.627 90 211.625 90 211.623 90C211.62 90 211.618 90 211.615 90C211.613 90 211.611 90 211.608 90C211.606 90 211.604 90 211.601 90C211.599 90 211.596 90 211.594 90C211.592 90 211.589 90 211.587 90C211.585 90 211.582 90 211.58 90C211.577 90 211.575 90 211.573 90C211.57 90 211.568 90 211.565 90C211.563 90 211.561 90 211.558 90C211.556 90 211.553 90 211.551 90C211.549 90 211.546 90 211.544 90C211.541 90 211.539 90 211.537 90C211.534 90 211.532 90 211.529 90C211.527 90 211.524 90 211.522 90C211.52 90 211.517 90 211.515 90C211.512 90 211.51 90 211.507 90C211.505 90 211.502 90 211.5 90C211.498 90 211.495 90 211.493 90C211.49 90 211.488 90 211.485 90C211.483 90 211.48 90 211.478 90C211.476 90 211.473 90 211.471 90C211.468 90 211.466 90 211.463 90C211.461 90 211.458 90 211.456 90C211.453 90 211.451 90 211.448 90C211.446 90 211.443 90 211.441 90C211.438 90 211.436 90 211.434 90C211.431 90 211.429 90 211.426 90C211.424 90 211.421 90 211.419 90C211.416 90 211.414 90 211.411 90C211.409 90 211.406 90 211.404 90C211.401 90 211.399 90 211.396 90C211.394 90 211.391 90 211.389 90C211.386 90 211.383 90 211.381 90C211.378 90 211.376 90 211.373 90C211.371 90 211.368 90 211.366 90C211.363 90 211.361 90 211.358 90C211.356 90 211.353 90 211.351 90C211.348 90 211.346 90 211.343 90C211.34 90 211.338 90 211.335 90C211.333 90 211.33 90 211.328 90C211.325 90 211.323 90 211.32 90C211.317 90 211.315 90 211.312 90C211.31 90 211.307 90 211.305 90C211.302 90 211.3 90 211.297 90C211.294 90 211.292 90 211.289 90C211.287 90 211.284 90 211.282 90C211.279 90 211.276 90 211.274 90C211.271 90 211.269 90 211.266 90C211.263 90 211.261 90 211.258 90C211.256 90 211.253 90 211.25 90C211.248 90 211.245 90 211.243 90C211.24 90 211.237 90 211.235 90C211.232 90 211.23 90 211.227 90C211.224 90 211.222 90 211.219 90C211.217 90 211.214 90 211.211 90C211.209 90 211.206 90 211.203 90C211.201 90 211.198 90 211.195 90C211.193 90 211.19 90 211.188 90C211.185 90 211.182 90 211.18 90C211.177 90 211.174 90 211.172 90C211.169 90 211.166 90 211.164 90C211.161 90 211.158 90 211.156 90C211.153 90 211.151 90 211.148 90C211.145 90 211.143 90 211.14 90C211.137 90 211.135 90 211.132 90C211.129 90 211.127 90 211.124 90C211.121 90 211.118 90 211.116 90C211.113 90 211.11 90 211.108 90C211.105 90 211.102 90 211.1 90C211.097 90 211.094 90 211.092 90C211.089 90 211.086 90 211.084 90C211.081 90 211.078 90 211.075 90C211.073 90 211.07 90 211.067 90C211.065 90 211.062 90 211.059 90C211.056 90 211.054 90 211.051 90C211.048 90 211.046 90 211.043 90C211.04 90 211.037 90 211.035 90C211.032 90 211.029 90 211.026 90C211.024 90 211.021 90 211.018 90C211.016 90 211.013 90 211.01 90C211.007 90 211.005 90 211.002 90C210.999 90 210.996 90 210.994 90C210.991 90 210.988 90 210.985 90C210.983 90 210.98 90 210.977 90C210.974 90 210.971 90 210.969 90C210.966 90 210.963 90 210.96 90C210.958 90 210.955 90 210.952 90C210.949 90 210.947 90 210.944 90C210.941 90 210.938 90 210.935 90C210.933 90 210.93 90 210.927 90C210.924 90 210.921 90 210.919 90C210.916 90 210.913 90 210.91 90C210.907 90 210.905 90 210.902 90C210.899 90 210.896 90 210.893 90C210.891 90 210.888 90 210.885 90C210.882 90 210.879 90 210.877 90C210.874 90 210.871 90 210.868 90C210.865 90 210.862 90 210.86 90C210.857 90 210.854 90 210.851 90C210.848 90 210.845 90 210.843 90C210.84 90 210.837 90 210.834 90C210.831 90 210.828 90 210.826 90C210.823 90 210.82 90 210.817 90C210.814 90 210.811 90 210.808 90C210.806 90 210.803 90 210.8 90C210.797 90 210.794 90 210.791 90C210.788 90 210.786 90 210.783 90C210.78 90 210.777 90 210.774 90C210.771 90 210.768 90 210.765 90C210.763 90 210.76 90 210.757 90C210.754 90 210.751 90 210.748 90C210.745 90 210.742 90 210.739 90C210.737 90 210.734 90 210.731 90C210.728 90 210.725 90 210.722 90C210.719 90 210.716 90 210.713 90C210.71 90 210.708 90 210.705 90C210.702 90 210.699 90 210.696 90C210.693 90 210.69 90 210.687 90C210.684 90 210.681 90 210.678 90C210.675 90 210.672 90 210.67 90C210.667 90 210.664 90 210.661 90C210.658 90 210.655 90 210.652 90C210.649 90 210.646 90 210.643 90C210.64 90 210.637 90 210.634 90C210.631 90 210.628 90 210.625 90C210.622 90 210.619 90 210.616 90C210.613 90 210.611 90 210.608 90C210.605 90 210.602 90 210.599 90C210.596 90 210.593 90 210.59 90C210.587 90 210.584 90 210.581 90C210.578 90 210.575 90 210.572 90C210.569 90 210.566 90 210.563 90C210.56 90 210.557 90 210.554 90C210.551 90 210.548 90 210.545 90C210.542 90 210.539 90 210.536 90C210.533 90 210.53 90 210.527 90C210.524 90 210.521 90 210.518 90C210.515 90 210.512 90 210.509 90C210.506 90 210.503 90 210.5 90C210.497 90 210.494 90 210.491 90C210.488 90 210.485 90 210.482 90C210.479 90 210.476 90 210.472 90C210.469 90 210.466 90 210.463 90C210.46 90 210.457 90 210.454 90C210.451 90 210.448 90 210.445 90C210.442 90 210.439 90 210.436 90C210.433 90 210.43 90 210.427 90C210.424 90 210.421 90 210.418 90C210.414 90 210.411 90 210.408 90C210.405 90 210.402 90 210.399 90C210.396 90 210.393 90 210.39 90C210.387 90 210.384 90 210.381 90C210.378 90 210.374 90 210.371 90C210.368 90 210.365 90 210.362 90C210.359 90 210.356 90 210.353 90C210.35 90 210.347 90 210.343 90C210.34 90 210.337 90 210.334 90C210.331 90 210.328 90 210.325 90C210.322 90 210.319 90 210.315 90C210.312 90 210.309 90 210.306 90C210.303 90 210.3 90 210.297 90C210.294 90 210.29 90 210.287 90C210.284 90 210.281 90 210.278 90C210.275 90 210.272 90 210.269 90C210.265 90 210.262 90 210.259 90C210.256 90 210.253 90 210.25 90C210.246 90 210.243 90 210.24 90C210.237 90 210.234 90 210.231 90C210.228 90 210.224 90 210.221 90C210.218 90 210.215 90 210.212 90C210.209 90 210.205 90 210.202 90C210.199 90 210.196 90 210.193 90C210.189 90 210.186 90 210.183 90C210.18 90 210.177 90 210.174 90C210.17 90 210.167 90 210.164 90C210.161 90 210.158 90 210.154 90C210.151 90 210.148 90 210.145 90C210.142 90 210.138 90 210.135 90C210.132 90 210.129 90 210.126 90C210.122 90 210.119 90 210.116 90C210.113 90 210.109 90 210.106 90C210.103 90 210.1 90 210.097 90C210.093 90 210.09 90 210.087 90C210.084 90 210.08 90 210.077 90C210.074 90 210.071 90 210.067 90C210.064 90 210.061 90 210.058 90C210.054 90 210.051 90 210.048 90C210.045 90 210.041 90 210.038 90C210.035 90 210.032 90 210.028 90C210.025 90 210.022 90 210.019 90C210.015 90 210.012 90 210.009 90C210.006 90 210.002 90 209.999 90C209.996 90 209.992 90 209.989 90C209.986 90 209.983 90 209.979 90C209.976 90 209.973 90 209.969 90C209.966 90 209.963 90 209.96 90C209.956 90 209.953 90 209.95 90C209.946 90 209.943 90 209.94 90C209.936 90 209.933 90 209.93 90C209.927 90 209.923 90 209.92 90C209.917 90 209.913 90 209.91 90C209.907 90 209.903 90 209.9 90C209.897 90 209.893 90 209.89 90C209.887 90 209.883 90 209.88 90C209.877 90 209.873 90 209.87 90C209.867 90 209.863 90 209.86 90C209.857 90 209.853 90 209.85 90C209.847 90 209.843 90 209.84 90C209.837 90 209.833 90 209.83 90C209.826 90 209.823 90 209.82 90C209.816 90 209.813 90 209.81 90C209.806 90 209.803 90 209.8 90C209.796 90 209.793 90 209.789 90C209.786 90 209.783 90 209.779 90C209.776 90 209.773 90 209.769 90C209.766 90 209.762 90 209.759 90C209.756 90 209.752 90 209.749 90C209.745 90 209.742 90 209.739 90C209.735 90 209.732 90 209.728 90C209.725 90 209.722 90 209.718 90C209.715 90 209.711 90 209.708 90C209.705 90 209.701 90 209.698 90C209.694 90 209.691 90 209.687 90C209.684 90 209.681 90 209.677 90C209.674 90 209.67 90 209.667 90C209.663 90 209.66 90 209.657 90C209.653 90 209.65 90 209.646 90C209.643 90 209.639 90 209.636 90C209.632 90 209.629 90 209.626 90C209.622 90 209.619 90 209.615 90C209.612 90 209.608 90 209.605 90C209.601 90 209.598 90 209.594 90C209.591 90 209.588 90 209.584 90C209.581 90 209.577 90 209.574 90C209.57 90 209.567 90 209.563 90C209.56 90 209.556 90 209.553 90C209.549 90 209.546 90 209.542 90C209.539 90 209.535 90 209.532 90C209.528 90 209.525 90 209.521 90C209.518 90 209.514 90 209.511 90C209.507 90 209.504 90 209.5 90C209.497 90 209.493 90 209.49 90C209.486 90 209.483 90 209.479 90C209.476 90 209.472 90 209.469 90C209.465 90 209.462 90 209.458 90C209.455 90 209.451 90 209.447 90C209.444 90 209.44 90 209.437 90C209.433 90 209.43 90 209.426 90C209.423 90 209.419 90 209.416 90C209.412 90 209.409 90 209.405 90C209.401 90 209.398 90 209.394 90C209.391 90 209.387 90 209.384 90C209.38 90 209.376 90 209.373 90C209.369 90 209.366 90 209.362 90C209.359 90 209.355 90 209.351 90C209.348 90 209.344 90 209.341 90C209.337 90 209.334 90 209.33 90C209.326 90 209.323 90 209.319 90C209.316 90 209.312 90 209.308 90C209.305 90 209.301 90 209.298 90C209.294 90 209.29 90 209.287 90C209.283 90 209.28 90 209.276 90C209.272 90 209.269 90 209.265 90C209.262 90 209.258 90 209.254 90C209.251 90 209.247 90 209.244 90C209.24 90 209.236 90 209.233 90C209.229 90 209.225 90 209.222 90C209.218 90 209.214 90 209.211 90C209.207 90 209.204 90 209.2 90C209.196 90 209.193 90 209.189 90C209.185 90 209.182 90 209.178 90C209.174 90 209.171 90 209.167 90C209.163 90 209.16 90 209.156 90C209.152 90 209.149 90 209.145 90C209.141 90 209.138 90 209.134 90C209.13 90 209.127 90 209.123 90C209.119 90 209.116 90 209.112 90C209.108 90 209.105 90 209.101 90C209.097 90 209.094 90 209.09 90C209.086 90 209.083 90 209.079 90C209.075 90 209.071 90 209.068 90C209.064 90 209.06 90 209.057 90C209.053 90 209.049 90 209.046 90C209.042 90 209.038 90 209.034 90C209.031 90 209.027 90 209.023 90C209.02 90 209.016 90 209.012 90C209.008 90 209.005 90 209.001 90C208.997 90 208.993 90 208.99 90C208.986 90 208.982 90 208.979 90C208.975 90 208.971 90 208.967 90C208.964 90 208.96 90 208.956 90C208.952 90 208.949 90 208.945 90C208.941 90 208.937 90 208.934 90C208.93 90 208.926 90 208.922 90C208.919 90 208.915 90 208.911 90C208.907 90 208.903 90 208.9 90C208.896 90 208.892 90 208.888 90C208.885 90 208.881 90 208.877 90C208.873 90 208.869 90 208.866 90C208.862 90 208.858 90 208.854 90C208.851 90 208.847 90 208.843 90C208.839 90 208.835 90 208.832 90C208.828 90 208.824 90 208.82 90C208.816 90 208.813 90 208.809 90C208.805 90 208.801 90 208.797 90C208.793 90 208.79 90 208.786 90C208.782 90 208.778 90 208.774 90C208.771 90 208.767 90 208.763 90C208.759 90 208.755 90 208.751 90C208.748 90 208.744 90 208.74 90C208.736 90 208.732 90 208.728 90C208.725 90 208.721 90 208.717 90C208.713 90 208.709 90 208.705 90C208.701 90 208.698 90 208.694 90C208.69 90 208.686 90 208.682 90C208.678 90 208.674 90 208.671 90C208.667 90 208.663 90 208.659 90C208.655 90 208.651 90 208.647 90C208.643 90 208.64 90 208.636 90C208.632 90 208.628 90 208.624 90C208.62 90 208.616 90 208.612 90C208.609 90 208.605 90 208.601 90C208.597 90 208.593 90 208.589 90C208.585 90 208.581 90 208.577 90C208.573 90 208.57 90 208.566 90C208.562 90 208.558 90 208.554 90C208.55 90 208.546 90 208.542 90C208.538 90 208.534 90 208.53 90C208.526 90 208.523 90 208.519 90C208.515 90 208.511 90 208.507 90C208.503 90 208.499 90 208.495 90V102C208.499 102 208.503 102 208.507 102C208.511 102 208.515 102 208.519 102C208.523 102 208.526 102 208.53 102C208.534 102 208.538 102 208.542 102C208.546 102 208.55 102 208.554 102C208.558 102 208.562 102 208.566 102C208.57 102 208.573 102 208.577 102C208.581 102 208.585 102 208.589 102C208.593 102 208.597 102 208.601 102C208.605 102 208.609 102 208.612 102C208.616 102 208.62 102 208.624 102C208.628 102 208.632 102 208.636 102C208.64 102 208.643 102 208.647 102C208.651 102 208.655 102 208.659 102C208.663 102 208.667 102 208.671 102C208.674 102 208.678 102 208.682 102C208.686 102 208.69 102 208.694 102C208.698 102 208.701 102 208.705 102C208.709 102 208.713 102 208.717 102C208.721 102 208.725 102 208.728 102C208.732 102 208.736 102 208.74 102C208.744 102 208.748 102 208.751 102C208.755 102 208.759 102 208.763 102C208.767 102 208.771 102 208.774 102C208.778 102 208.782 102 208.786 102C208.79 102 208.793 102 208.797 102C208.801 102 208.805 102 208.809 102C208.813 102 208.816 102 208.82 102C208.824 102 208.828 102 208.832 102C208.835 102 208.839 102 208.843 102C208.847 102 208.851 102 208.854 102C208.858 102 208.862 102 208.866 102C208.869 102 208.873 102 208.877 102C208.881 102 208.885 102 208.888 102C208.892 102 208.896 102 208.9 102C208.903 102 208.907 102 208.911 102C208.915 102 208.919 102 208.922 102C208.926 102 208.93 102 208.934 102C208.937 102 208.941 102 208.945 102C208.949 102 208.952 102 208.956 102C208.96 102 208.964 102 208.967 102C208.971 102 208.975 102 208.979 102C208.982 102 208.986 102 208.99 102C208.993 102 208.997 102 209.001 102C209.005 102 209.008 102 209.012 102C209.016 102 209.02 102 209.023 102C209.027 102 209.031 102 209.034 102C209.038 102 209.042 102 209.046 102C209.049 102 209.053 102 209.057 102C209.06 102 209.064 102 209.068 102C209.071 102 209.075 102 209.079 102C209.083 102 209.086 102 209.09 102C209.094 102 209.097 102 209.101 102C209.105 102 209.108 102 209.112 102C209.116 102 209.119 102 209.123 102C209.127 102 209.13 102 209.134 102C209.138 102 209.141 102 209.145 102C209.149 102 209.152 102 209.156 102C209.16 102 209.163 102 209.167 102C209.171 102 209.174 102 209.178 102C209.182 102 209.185 102 209.189 102C209.193 102 209.196 102 209.2 102C209.204 102 209.207 102 209.211 102C209.214 102 209.218 102 209.222 102C209.225 102 209.229 102 209.233 102C209.236 102 209.24 102 209.244 102C209.247 102 209.251 102 209.254 102C209.258 102 209.262 102 209.265 102C209.269 102 209.272 102 209.276 102C209.28 102 209.283 102 209.287 102C209.29 102 209.294 102 209.298 102C209.301 102 209.305 102 209.308 102C209.312 102 209.316 102 209.319 102C209.323 102 209.326 102 209.33 102C209.334 102 209.337 102 209.341 102C209.344 102 209.348 102 209.351 102C209.355 102 209.359 102 209.362 102C209.366 102 209.369 102 209.373 102C209.376 102 209.38 102 209.384 102C209.387 102 209.391 102 209.394 102C209.398 102 209.401 102 209.405 102C209.409 102 209.412 102 209.416 102C209.419 102 209.423 102 209.426 102C209.43 102 209.433 102 209.437 102C209.44 102 209.444 102 209.447 102C209.451 102 209.455 102 209.458 102C209.462 102 209.465 102 209.469 102C209.472 102 209.476 102 209.479 102C209.483 102 209.486 102 209.49 102C209.493 102 209.497 102 209.5 102C209.504 102 209.507 102 209.511 102C209.514 102 209.518 102 209.521 102C209.525 102 209.528 102 209.532 102C209.535 102 209.539 102 209.542 102C209.546 102 209.549 102 209.553 102C209.556 102 209.56 102 209.563 102C209.567 102 209.57 102 209.574 102C209.577 102 209.581 102 209.584 102C209.588 102 209.591 102 209.594 102C209.598 102 209.601 102 209.605 102C209.608 102 209.612 102 209.615 102C209.619 102 209.622 102 209.626 102C209.629 102 209.632 102 209.636 102C209.639 102 209.643 102 209.646 102C209.65 102 209.653 102 209.657 102C209.66 102 209.663 102 209.667 102C209.67 102 209.674 102 209.677 102C209.681 102 209.684 102 209.687 102C209.691 102 209.694 102 209.698 102C209.701 102 209.705 102 209.708 102C209.711 102 209.715 102 209.718 102C209.722 102 209.725 102 209.728 102C209.732 102 209.735 102 209.739 102C209.742 102 209.745 102 209.749 102C209.752 102 209.756 102 209.759 102C209.762 102 209.766 102 209.769 102C209.773 102 209.776 102 209.779 102C209.783 102 209.786 102 209.789 102C209.793 102 209.796 102 209.8 102C209.803 102 209.806 102 209.81 102C209.813 102 209.816 102 209.82 102C209.823 102 209.826 102 209.83 102C209.833 102 209.837 102 209.84 102C209.843 102 209.847 102 209.85 102C209.853 102 209.857 102 209.86 102C209.863 102 209.867 102 209.87 102C209.873 102 209.877 102 209.88 102C209.883 102 209.887 102 209.89 102C209.893 102 209.897 102 209.9 102C209.903 102 209.907 102 209.91 102C209.913 102 209.917 102 209.92 102C209.923 102 209.927 102 209.93 102C209.933 102 209.936 102 209.94 102C209.943 102 209.946 102 209.95 102C209.953 102 209.956 102 209.96 102C209.963 102 209.966 102 209.969 102C209.973 102 209.976 102 209.979 102C209.983 102 209.986 102 209.989 102C209.992 102 209.996 102 209.999 102C210.002 102 210.006 102 210.009 102C210.012 102 210.015 102 210.019 102C210.022 102 210.025 102 210.028 102C210.032 102 210.035 102 210.038 102C210.041 102 210.045 102 210.048 102C210.051 102 210.054 102 210.058 102C210.061 102 210.064 102 210.067 102C210.071 102 210.074 102 210.077 102C210.08 102 210.084 102 210.087 102C210.09 102 210.093 102 210.097 102C210.1 102 210.103 102 210.106 102C210.109 102 210.113 102 210.116 102C210.119 102 210.122 102 210.126 102C210.129 102 210.132 102 210.135 102C210.138 102 210.142 102 210.145 102C210.148 102 210.151 102 210.154 102C210.158 102 210.161 102 210.164 102C210.167 102 210.17 102 210.174 102C210.177 102 210.18 102 210.183 102C210.186 102 210.189 102 210.193 102C210.196 102 210.199 102 210.202 102C210.205 102 210.209 102 210.212 102C210.215 102 210.218 102 210.221 102C210.224 102 210.228 102 210.231 102C210.234 102 210.237 102 210.24 102C210.243 102 210.246 102 210.25 102C210.253 102 210.256 102 210.259 102C210.262 102 210.265 102 210.269 102C210.272 102 210.275 102 210.278 102C210.281 102 210.284 102 210.287 102C210.29 102 210.294 102 210.297 102C210.3 102 210.303 102 210.306 102C210.309 102 210.312 102 210.315 102C210.319 102 210.322 102 210.325 102C210.328 102 210.331 102 210.334 102C210.337 102 210.34 102 210.343 102C210.347 102 210.35 102 210.353 102C210.356 102 210.359 102 210.362 102C210.365 102 210.368 102 210.371 102C210.374 102 210.378 102 210.381 102C210.384 102 210.387 102 210.39 102C210.393 102 210.396 102 210.399 102C210.402 102 210.405 102 210.408 102C210.411 102 210.414 102 210.418 102C210.421 102 210.424 102 210.427 102C210.43 102 210.433 102 210.436 102C210.439 102 210.442 102 210.445 102C210.448 102 210.451 102 210.454 102C210.457 102 210.46 102 210.463 102C210.466 102 210.469 102 210.472 102C210.476 102 210.479 102 210.482 102C210.485 102 210.488 102 210.491 102C210.494 102 210.497 102 210.5 102C210.503 102 210.506 102 210.509 102C210.512 102 210.515 102 210.518 102C210.521 102 210.524 102 210.527 102C210.53 102 210.533 102 210.536 102C210.539 102 210.542 102 210.545 102C210.548 102 210.551 102 210.554 102C210.557 102 210.56 102 210.563 102C210.566 102 210.569 102 210.572 102C210.575 102 210.578 102 210.581 102C210.584 102 210.587 102 210.59 102C210.593 102 210.596 102 210.599 102C210.602 102 210.605 102 210.608 102C210.611 102 210.613 102 210.616 102C210.619 102 210.622 102 210.625 102C210.628 102 210.631 102 210.634 102C210.637 102 210.64 102 210.643 102C210.646 102 210.649 102 210.652 102C210.655 102 210.658 102 210.661 102C210.664 102 210.667 102 210.67 102C210.672 102 210.675 102 210.678 102C210.681 102 210.684 102 210.687 102C210.69 102 210.693 102 210.696 102C210.699 102 210.702 102 210.705 102C210.708 102 210.71 102 210.713 102C210.716 102 210.719 102 210.722 102C210.725 102 210.728 102 210.731 102C210.734 102 210.737 102 210.739 102C210.742 102 210.745 102 210.748 102C210.751 102 210.754 102 210.757 102C210.76 102 210.763 102 210.765 102C210.768 102 210.771 102 210.774 102C210.777 102 210.78 102 210.783 102C210.786 102 210.788 102 210.791 102C210.794 102 210.797 102 210.8 102C210.803 102 210.806 102 210.808 102C210.811 102 210.814 102 210.817 102C210.82 102 210.823 102 210.826 102C210.828 102 210.831 102 210.834 102C210.837 102 210.84 102 210.843 102C210.845 102 210.848 102 210.851 102C210.854 102 210.857 102 210.86 102C210.862 102 210.865 102 210.868 102C210.871 102 210.874 102 210.877 102C210.879 102 210.882 102 210.885 102C210.888 102 210.891 102 210.893 102C210.896 102 210.899 102 210.902 102C210.905 102 210.907 102 210.91 102C210.913 102 210.916 102 210.919 102C210.921 102 210.924 102 210.927 102C210.93 102 210.933 102 210.935 102C210.938 102 210.941 102 210.944 102C210.947 102 210.949 102 210.952 102C210.955 102 210.958 102 210.96 102C210.963 102 210.966 102 210.969 102C210.971 102 210.974 102 210.977 102C210.98 102 210.983 102 210.985 102C210.988 102 210.991 102 210.994 102C210.996 102 210.999 102 211.002 102C211.005 102 211.007 102 211.01 102C211.013 102 211.016 102 211.018 102C211.021 102 211.024 102 211.026 102C211.029 102 211.032 102 211.035 102C211.037 102 211.04 102 211.043 102C211.046 102 211.048 102 211.051 102C211.054 102 211.056 102 211.059 102C211.062 102 211.065 102 211.067 102C211.07 102 211.073 102 211.075 102C211.078 102 211.081 102 211.084 102C211.086 102 211.089 102 211.092 102C211.094 102 211.097 102 211.1 102C211.102 102 211.105 102 211.108 102C211.11 102 211.113 102 211.116 102C211.118 102 211.121 102 211.124 102C211.127 102 211.129 102 211.132 102C211.135 102 211.137 102 211.14 102C211.143 102 211.145 102 211.148 102C211.151 102 211.153 102 211.156 102C211.158 102 211.161 102 211.164 102C211.166 102 211.169 102 211.172 102C211.174 102 211.177 102 211.18 102C211.182 102 211.185 102 211.188 102C211.19 102 211.193 102 211.195 102C211.198 102 211.201 102 211.203 102C211.206 102 211.209 102 211.211 102C211.214 102 211.217 102 211.219 102C211.222 102 211.224 102 211.227 102C211.23 102 211.232 102 211.235 102C211.237 102 211.24 102 211.243 102C211.245 102 211.248 102 211.25 102C211.253 102 211.256 102 211.258 102C211.261 102 211.263 102 211.266 102C211.269 102 211.271 102 211.274 102C211.276 102 211.279 102 211.282 102C211.284 102 211.287 102 211.289 102C211.292 102 211.294 102 211.297 102C211.3 102 211.302 102 211.305 102C211.307 102 211.31 102 211.312 102C211.315 102 211.317 102 211.32 102C211.323 102 211.325 102 211.328 102C211.33 102 211.333 102 211.335 102C211.338 102 211.34 102 211.343 102C211.346 102 211.348 102 211.351 102C211.353 102 211.356 102 211.358 102C211.361 102 211.363 102 211.366 102C211.368 102 211.371 102 211.373 102C211.376 102 211.378 102 211.381 102C211.383 102 211.386 102 211.389 102C211.391 102 211.394 102 211.396 102C211.399 102 211.401 102 211.404 102C211.406 102 211.409 102 211.411 102C211.414 102 211.416 102 211.419 102C211.421 102 211.424 102 211.426 102C211.429 102 211.431 102 211.434 102C211.436 102 211.438 102 211.441 102C211.443 102 211.446 102 211.448 102C211.451 102 211.453 102 211.456 102C211.458 102 211.461 102 211.463 102C211.466 102 211.468 102 211.471 102C211.473 102 211.476 102 211.478 102C211.48 102 211.483 102 211.485 102C211.488 102 211.49 102 211.493 102C211.495 102 211.498 102 211.5 102C211.502 102 211.505 102 211.507 102C211.51 102 211.512 102 211.515 102C211.517 102 211.52 102 211.522 102C211.524 102 211.527 102 211.529 102C211.532 102 211.534 102 211.537 102C211.539 102 211.541 102 211.544 102C211.546 102 211.549 102 211.551 102C211.553 102 211.556 102 211.558 102C211.561 102 211.563 102 211.565 102C211.568 102 211.57 102 211.573 102C211.575 102 211.577 102 211.58 102C211.582 102 211.585 102 211.587 102C211.589 102 211.592 102 211.594 102C211.596 102 211.599 102 211.601 102C211.604 102 211.606 102 211.608 102C211.611 102 211.613 102 211.615 102C211.618 102 211.62 102 211.623 102C211.625 102 211.627 102 211.63 102C211.632 102 211.634 102 211.637 102C211.639 102 211.641 102 211.644 102C211.646 102 211.648 102 211.651 102C211.653 102 211.655 102 211.658 102C211.66 102 211.662 102 211.665 102C211.667 102 211.669 102 211.672 102C211.674 102 211.676 102 211.679 102C211.681 102 211.683 102 211.686 102C211.688 102 211.69 102 211.693 102C211.695 102 211.697 102 211.7 102C211.702 102 211.704 102 211.707 102C211.709 102 211.711 102 211.713 102C211.716 102 211.718 102 211.72 102C211.723 102 211.725 102 211.727 102C211.73 102 211.732 102 211.734 102C211.736 102 211.739 102 211.741 102C211.743 102 211.745 102 211.748 102C211.75 102 211.752 102 211.755 102C211.757 102 211.759 102 211.761 102C211.764 102 211.766 102 211.768 102C211.77 102 211.773 102 211.775 102C211.777 102 211.779 102 211.782 102C211.784 102 211.786 102 211.788 102C211.791 102 211.793 102 211.795 102C211.797 102 211.8 102 211.802 102C211.804 102 211.806 102 211.809 102C211.811 102 211.813 102 211.815 102C211.818 102 211.82 102 211.822 102C211.824 102 211.826 102 211.829 102C211.831 102 211.833 102 211.835 102C211.838 102 211.84 102 211.842 102C211.844 102 211.846 102 211.849 102C211.851 102 211.853 102 211.855 102C211.857 102 211.86 102 211.862 102C211.864 102 211.866 102 211.868 102C211.871 102 211.873 102 211.875 102C211.877 102 211.879 102 211.881 102C211.884 102 211.886 102 211.888 102C211.89 102 211.892 102 211.895 102C211.897 102 211.899 102 211.901 102C211.903 102 211.905 102 211.908 102C211.91 102 211.912 102 211.914 102C211.916 102 211.918 102 211.92 102C211.923 102 211.925 102 211.927 102C211.929 102 211.931 102 211.933 102C211.935 102 211.938 102 211.94 102C211.942 102 211.944 102 211.946 102C211.948 102 211.95 102 211.953 102C211.955 102 211.957 102 211.959 102C211.961 102 211.963 102 211.965 102C211.967 102 211.97 102 211.972 102C211.974 102 211.976 102 211.978 102C211.98 102 211.982 102 211.984 102C211.986 102 211.989 102 211.991 102C211.993 102 211.995 102 211.997 102C211.999 102 212.001 102 212.003 102C212.005 102 212.007 102 212.009 102C212.012 102 212.014 102 212.016 102C212.018 102 212.02 102 212.022 102C212.024 102 212.026 102 212.028 102C212.03 102 212.032 102 212.034 102C212.036 102 212.039 102 212.041 102C212.043 102 212.045 102 212.047 102C212.049 102 212.051 102 212.053 102C212.055 102 212.057 102 212.059 102C212.061 102 212.063 102 212.065 102C212.067 102 212.069 102 212.071 102C212.073 102 212.075 102 212.077 102C212.079 102 212.081 102 212.084 102C212.086 102 212.088 102 212.09 102C212.092 102 212.094 102 212.096 102C212.098 102 212.1 102 212.102 102C212.104 102 212.106 102 212.108 102C212.11 102 212.112 102 212.114 102C212.116 102 212.118 102 212.12 102C212.122 102 212.124 102 212.126 102C212.128 102 212.13 102 212.132 102C212.134 102 212.136 102 212.138 102C212.14 102 212.142 102 212.144 102C212.146 102 212.148 102 212.15 102C212.152 102 212.154 102 212.156 102C212.157 102 212.159 102 212.161 102C212.163 102 212.165 102 212.167 102C212.169 102 212.171 102 212.173 102C212.175 102 212.177 102 212.179 102C212.181 102 212.183 102 212.185 102C212.187 102 212.189 102 212.191 102C212.193 102 212.195 102 212.197 102C212.198 102 212.2 102 212.202 102C212.204 102 212.206 102 212.208 102C212.21 102 212.212 102 212.214 102C212.216 102 212.218 102 212.22 102C212.222 102 212.224 102 212.225 102C212.227 102 212.229 102 212.231 102C212.233 102 212.235 102 212.237 102C212.239 102 212.241 102 212.243 102C212.245 102 212.246 102 212.248 102C212.25 102 212.252 102 212.254 102C212.256 102 212.258 102 212.26 102C212.262 102 212.263 102 212.265 102C212.267 102 212.269 102 212.271 102C212.273 102 212.275 102 212.277 102C212.278 102 212.28 102 212.282 102C212.284 102 212.286 102 212.288 102C212.29 102 212.291 102 212.293 102C212.295 102 212.297 102 212.299 102C212.301 102 212.303 102 212.304 102C212.306 102 212.308 102 212.31 102C212.312 102 212.314 102 212.316 102C212.317 102 212.319 102 212.321 102C212.323 102 212.325 102 212.327 102C212.328 102 212.33 102 212.332 102C212.334 102 212.336 102 212.337 102C212.339 102 212.341 102 212.343 102C212.345 102 212.347 102 212.348 102C212.35 102 212.352 102 212.354 102C212.356 102 212.357 102 212.359 102C212.361 102 212.363 102 212.365 102C212.366 102 212.368 102 212.37 102C212.372 102 212.374 102 212.375 102C212.377 102 212.379 102 212.381 102C212.382 102 212.384 102 212.386 102C212.388 102 212.39 102 212.391 102C212.393 102 212.395 102 212.397 102C212.398 102 212.4 102 212.402 102C212.404 102 212.405 102 212.407 102C212.409 102 212.411 102 212.412 102C212.414 102 212.416 102 212.418 102C212.419 102 212.421 102 212.423 102C212.425 102 212.426 102 212.428 102C212.43 102 212.432 102 212.433 102C212.435 102 212.437 102 212.439 102C212.44 102 212.442 102 212.444 102C212.445 102 212.447 102 212.449 102C212.451 102 212.452 102 212.454 102C212.456 102 212.457 102 212.459 102C212.461 102 212.463 102 212.464 102C212.466 102 212.468 102 212.469 102C212.471 102 212.473 102 212.474 102C212.476 102 212.478 102 212.48 102C212.481 102 212.483 102 212.485 102C212.486 102 212.488 102 212.49 102C212.491 102 212.493 102 212.495 102C212.496 102 212.498 102 212.5 102C212.501 102 212.503 102 212.505 102C212.506 102 212.508 102 212.51 102C212.511 102 212.513 102 212.515 102C212.516 102 212.518 102 212.52 102C212.521 102 212.523 102 212.525 102C212.526 102 212.528 102 212.53 102C212.531 102 212.533 102 212.534 102C212.536 102 212.538 102 212.539 102C212.541 102 212.543 102 212.544 102C212.546 102 212.548 102 212.549 102C212.551 102 212.552 102 212.554 102C212.556 102 212.557 102 212.559 102C212.561 102 212.562 102 212.564 102C212.565 102 212.567 102 212.569 102C212.57 102 212.572 102 212.573 102C212.575 102 212.577 102 212.578 102C212.58 102 212.581 102 212.583 102C212.585 102 212.586 102 212.588 102C212.589 102 212.591 102 212.592 102C212.594 102 212.596 102 212.597 102C212.599 102 212.6 102 212.602 102C212.603 102 212.605 102 212.607 102C212.608 102 212.61 102 212.611 102C212.613 102 212.614 102 212.616 102C212.618 102 212.619 102 212.621 102C212.622 102 212.624 102 212.625 102C212.627 102 212.628 102 212.63 102C212.631 102 212.633 102 212.635 102C212.636 102 212.638 102 212.639 102C212.641 102 212.642 102 212.644 102C212.645 102 212.647 102 212.648 102C212.65 102 212.651 102 212.653 102C212.654 102 212.656 102 212.657 102C212.659 102 212.66 102 212.662 102C212.663 102 212.665 102 212.666 102C212.668 102 212.67 102 212.671 102V90ZM208.195 90.0075C209.035 89.9655 209.536 90.2131 209.563 90.2264C209.594 90.2416 209.395 90.1435 208.96 89.7614C208.075 88.9854 206.805 87.5671 205.144 85.2766L195.43 92.3234C197.321 94.9289 199.195 97.1586 201.046 98.7826C202.657 100.196 205.372 102.164 208.795 101.993L208.195 90.0075ZM205.176 85.3215C201.574 80.26 198.105 75.6176 194.769 71.3986L185.357 78.8414C188.549 82.8784 191.896 87.356 195.398 92.2785L205.176 85.3215ZM194.765 71.3927L172.733 43.6007L163.329 51.0553L185.361 78.8473L194.765 71.3927ZM163.854 43.0206L159.102 47.6286L167.456 56.2434L172.208 51.6354L163.854 43.0206ZM157.279 51.936V84.336H169.279V51.936H157.279ZM157.279 84.336C157.279 87.4391 157.564 90.5248 158.572 93.0443L169.714 88.5877C169.57 88.2272 169.279 86.9929 169.279 84.336H157.279ZM158.628 93.1795C160.028 96.4453 162.727 98.4155 165.762 99.3082L169.148 87.7958C168.967 87.7425 169.045 87.7337 169.224 87.8822C169.312 87.955 169.404 88.0485 169.486 88.1594C169.568 88.2698 169.624 88.3728 169.658 88.4525L158.628 93.1795ZM165.849 99.3331C168.4 100.042 171.767 100.272 175.519 100.272V88.272C171.975 88.272 169.966 88.0224 169.061 87.7709L165.849 99.3331ZM175.519 100.272C174.541 100.272 173.418 100.01 172.38 99.3183C171.379 98.6514 170.796 97.8111 170.476 97.1713C169.922 96.0615 169.951 95.1544 169.951 95.136H181.951C181.951 94.5416 181.908 93.2025 181.21 91.8047C180.818 91.0209 180.145 90.0726 179.036 89.3337C177.89 88.5697 176.641 88.272 175.519 88.272V100.272ZM169.951 95.136C169.951 95.1176 169.922 94.2105 170.476 93.1007C170.796 92.4609 171.379 91.6206 172.38 90.9537C173.418 90.2617 174.541 90 175.519 90V102C176.641 102 177.89 101.702 179.036 100.938C180.145 100.199 180.818 99.2511 181.21 98.4673C181.908 97.0695 181.951 95.7304 181.951 95.136H169.951ZM175.519 90C172.688 90 170.509 89.9524 168.94 89.8652L168.274 101.847C170.161 101.952 172.59 102 175.519 102V90ZM168.693 89.8566L158.613 89.7126L158.441 101.711L168.521 101.855L168.693 89.8566ZM158.439 89.7126L148.647 89.8566L148.823 101.855L158.615 101.711L158.439 89.7126ZM148.402 89.8652C146.838 89.9521 144.567 90 141.535 90V102C144.647 102 147.176 101.952 149.068 101.847L148.402 89.8652ZM141.535 90C143.182 90 144.638 90.6899 145.652 91.7034C146.518 92.5695 146.873 93.4729 147.011 93.8866C147.164 94.3463 147.212 94.7031 147.228 94.8514C147.247 95.0208 147.247 95.125 147.247 95.136H135.247C135.247 95.5991 135.266 96.5993 135.627 97.6814C135.936 98.6093 137.453 102 141.535 102V90ZM147.247 95.136C147.247 95.147 147.247 95.2512 147.228 95.4206C147.212 95.5689 147.164 95.9257 147.011 96.3854C146.873 96.7991 146.518 97.7025 145.652 98.5686C144.638 99.5821 143.182 100.272 141.535 100.272V88.272C137.453 88.272 135.936 91.6627 135.627 92.5906C135.266 93.6727 135.247 94.6729 135.247 95.136H147.247ZM141.535 100.272C145.256 100.272 148.634 100.048 151.148 99.3082L147.762 87.7958C147.012 88.0164 145.11 88.272 141.535 88.272V100.272ZM151.061 99.3331C154.105 98.4876 156.971 96.5743 158.426 93.1795L147.396 88.4525C147.443 88.344 147.512 88.2194 147.608 88.0945C147.703 87.9698 147.803 87.8729 147.891 87.8037C148.064 87.6665 148.108 87.699 147.849 87.7709L151.061 99.3331ZM158.348 93.3533C159.58 90.7125 159.919 87.4931 159.919 84.336H147.919C147.919 86.9389 147.585 88.0395 147.474 88.2787L158.348 93.3533ZM159.919 84.336V17.664H147.919V84.336H159.919ZM159.919 17.664C159.919 14.6066 159.646 11.4754 158.57 8.96448L147.54 13.6915C147.534 13.6781 147.566 13.7493 147.612 13.9352C147.658 14.1184 147.71 14.3789 147.758 14.7307C147.855 15.4435 147.919 16.4078 147.919 17.664H159.919ZM158.57 8.96449C157.115 5.56975 154.249 3.65639 151.205 2.81088L147.993 14.3731C148.252 14.445 148.208 14.4775 148.035 14.3403C147.947 14.2711 147.847 14.1742 147.752 14.0494C147.656 13.9246 147.587 13.8 147.54 13.6915L158.57 8.96449ZM151.596 2.93405C148.939 1.99634 145.424 1.72799 141.679 1.72799V13.728C145.23 13.728 146.995 14.0356 147.602 14.2499L151.596 2.93405ZM141.679 1.72799C143.326 1.72799 144.782 2.41788 145.796 3.43135C146.662 4.29745 147.017 5.20091 147.155 5.61462C147.308 6.07431 147.356 6.43113 147.372 6.57941C147.391 6.74879 147.391 6.85302 147.391 6.864H135.391C135.391 7.3271 135.41 8.32735 135.771 9.40937C136.08 10.3373 137.597 13.728 141.679 13.728V1.72799ZM147.391 6.864C147.391 6.87497 147.391 6.97921 147.372 7.14859C147.356 7.29686 147.308 7.65368 147.155 8.11337C147.017 8.52708 146.662 9.43055 145.796 10.2966C144.782 11.3101 143.326 12 141.679 12V0C137.597 0 136.08 3.39073 135.771 4.31863C135.41 5.40065 135.391 6.4009 135.391 6.864H147.391ZM141.559 11.9988L148.759 12.1428L148.999 0.145198L141.799 0.00119961L141.559 11.9988ZM148.594 12.1372C152.666 12.3311 155.99 12.432 158.527 12.432V0.431994C156.264 0.431994 153.156 0.340856 149.164 0.150789L148.594 12.1372ZM158.527 12.432C161.438 12.432 164.947 12.3319 169.036 12.1372L168.466 0.150789C164.491 0.340076 161.184 0.431994 158.527 0.431994V12.432ZM168.879 12.1426L175.647 11.9986L175.391 0.00135758L168.623 0.145356L168.879 12.1426ZM175.519 12C174.541 12 173.418 11.7383 172.38 11.0463C171.379 10.3794 170.796 9.53906 170.476 8.89928C169.922 7.78951 169.951 6.88244 169.951 6.864H181.951C181.951 6.26955 181.908 4.93049 181.21 3.53272C180.818 2.74894 180.145 1.80064 179.036 1.0617C177.89 0.297717 176.641 0 175.519 0V12ZM169.951 6.864C169.951 6.84555 169.922 5.93848 170.476 4.82871C170.796 4.18893 171.379 3.34863 172.38 2.68169C173.418 1.98971 174.541 1.72799 175.519 1.72799V13.728C176.641 13.728 177.89 13.4303 179.036 12.6663C180.145 11.9274 180.818 10.9791 181.21 10.1953C181.908 8.79751 181.951 7.45844 181.951 6.864H169.951ZM175.519 1.72799C171.813 1.72799 168.378 2.00773 165.702 2.89989L169.496 14.2841C170.276 14.0243 172.121 13.728 175.519 13.728V1.72799ZM165.602 2.93406C162.6 3.99345 160.123 6.04108 158.706 9.07868L169.58 14.1533C169.583 14.1477 169.574 14.1677 169.548 14.2019C169.522 14.2365 169.492 14.2693 169.462 14.2955C169.433 14.3211 169.419 14.3277 169.432 14.32C169.447 14.3116 169.497 14.2848 169.596 14.2499L165.602 2.93406ZM158.628 9.25248C157.552 11.7634 157.279 14.8946 157.279 17.952H169.279C169.279 16.6958 169.343 15.7315 169.44 15.0187C169.488 14.6669 169.54 14.4064 169.586 14.2232C169.632 14.0373 169.664 13.9661 169.658 13.9795L158.628 9.25248ZM157.279 17.952V48.336H169.279V17.952H157.279ZM167.512 52.5886L198.328 21.9166L189.862 13.4114L159.046 44.0834L167.512 52.5886ZM198.338 21.9066C200.057 20.1872 201.542 18.5 202.636 16.8756C203.61 15.4294 204.847 13.2142 204.847 10.608H192.847C192.847 10.2868 192.888 10.0417 192.922 9.89077C192.957 9.7403 192.99 9.65726 192.993 9.64921C192.994 9.64743 192.923 9.81564 192.682 10.1724C192.192 10.8999 191.301 11.9728 189.852 13.4214L198.338 21.9066ZM204.847 10.608C204.847 5.72151 200.905 3.53036 198.649 2.7656C196.282 1.9633 193.362 1.72799 190.351 1.72799V13.728C191.609 13.728 192.614 13.7819 193.394 13.8701C194.195 13.9606 194.627 14.0729 194.797 14.1304C195.009 14.2025 194.581 14.1076 194.038 13.5548C193.74 13.2522 193.421 12.8237 193.185 12.2631C192.946 11.6967 192.847 11.1251 192.847 10.608H204.847ZM190.351 1.72799C191.998 1.72799 193.454 2.41788 194.468 3.43134C195.334 4.29744 195.689 5.20091 195.827 5.61462C195.98 6.07431 196.028 6.43113 196.044 6.5794C196.063 6.74879 196.063 6.85302 196.063 6.864H184.063C184.063 7.3271 184.082 8.32735 184.443 9.40937C184.752 10.3373 186.269 13.728 190.351 13.728V1.72799ZM196.063 6.864C196.063 6.87497 196.063 6.97921 196.044 7.14859C196.028 7.29686 195.98 7.65368 195.827 8.11337C195.689 8.52709 195.334 9.43055 194.468 10.2967C193.454 11.3101 191.998 12 190.351 12V0C186.269 0 184.752 3.39072 184.443 4.31862C184.082 5.40065 184.063 6.40089 184.063 6.864H196.063ZM190.212 11.9984L196.404 12.1424L196.682 0.14562L190.49 0.0016218L190.212 11.9984ZM196.243 12.1365C200.163 12.3325 203.769 12.432 207.055 12.432V0.431994C204.005 0.431994 200.603 0.339502 196.843 0.151484L196.243 12.1365ZM207.055 12.432C210.344 12.432 213.767 12.3324 217.324 12.1348L216.658 0.153236C213.303 0.339633 210.102 0.431994 207.055 0.431994V12.432ZM217.153 12.1418L222.481 11.9978L222.157 0.00219012L216.829 0.146188L217.153 12.1418ZM222.319 12C221.341 12 220.218 11.7383 219.18 11.0463C218.179 10.3794 217.596 9.53909 217.276 8.8993C216.722 7.78952 216.751 6.88245 216.751 6.864H228.751C228.751 6.26955 228.708 4.93047 228.01 3.5327C227.618 2.74891 226.945 1.80062 225.836 1.06168C224.69 0.297711 223.441 0 222.319 0V12ZM216.751 6.864C216.751 6.84555 216.722 5.93847 217.276 4.82869C217.596 4.18891 218.179 3.34861 219.18 2.68168C220.218 1.98971 221.341 1.72799 222.319 1.72799V13.728C223.441 13.728 224.69 13.4303 225.836 12.6663C226.945 11.9274 227.618 10.9791 228.01 10.1953C228.708 8.79752 228.751 7.45845 228.751 6.864H216.751ZM222.319 1.72799C217.499 1.72799 212.578 2.78631 207.605 4.73254L211.977 15.9075C215.836 14.3977 219.267 13.728 222.319 13.728V1.72799ZM207.605 4.73254C202.35 6.78875 197.558 10.0011 193.218 14.232L201.596 22.824C204.936 19.5669 208.4 17.3072 211.977 15.9075L207.605 4.73254ZM193.205 14.2449L170.453 36.5649L178.857 45.1311L201.609 22.8111L193.205 14.2449ZM169.93 44.5458L190.666 71.0418L200.116 63.6461L179.38 37.1501L169.93 44.5458ZM190.633 70.9998C197.657 80.1398 203.166 86.8126 207.078 90.8272L215.672 82.4528C212.288 78.9794 207.141 72.7882 200.149 63.6882L190.633 70.9998ZM207.132 90.8826C209.114 92.8643 210.973 94.5475 212.692 95.8656C214.342 97.1306 216.185 98.3118 218.118 98.9561L221.912 87.5719C221.915 87.5726 221.746 87.5136 221.383 87.3004C221.031 87.093 220.57 86.7841 219.994 86.3424C218.833 85.4525 217.38 84.1597 215.618 82.3974L207.132 90.8826ZM218.118 98.9561C221.052 99.9343 224.746 100.272 228.799 100.272V88.272C225.172 88.272 223.01 87.9377 221.912 87.5719L218.118 98.9561Z" fill="#E3E3E3"/>
</g>
<defs>
<filter id="filter0_b" x="-3.672" y="-4" width="242.903" height="110.003" filterUnits="userSpaceOnUse" color-interpolation-filters="sRGB">
<feFlood flood-opacity="0" result="BackgroundImageFix"/>
<feGaussianBlur in="BackgroundImage" stdDeviation="2"/>
<feComposite in2="SourceAlpha" operator="in" result="effect1_backgroundBlur"/>
<feBlend mode="normal" in="SourceGraphic" in2="effect1_backgroundBlur" result="shape"/>
</filter>
</defs>
</svg>
